 http://desibbrg.net/imghost/out.php?i=427662_dbbkp2.jpg
 
http://desibbrg.net/imghost/out.php?i=430764_Desinrigirl.wmvthumbs2013.04.0819.19.11.jpg

Media Info - 
Video
ID                             : 2
Format                         : VC-1
Format profile                 : Main
Codec ID                       : WMV3
Codec ID/Info                  : Windows Media Video 9
Codec ID/Hint                  : WMV3
Description of the codec       : Windows Media Video V9 - 636 x 360, 29.97 fps, 1500 kbps (CBR)
Duration                       : 19mn 41s
Bit rate                       : 1 500 Kbps
Width                          : 636 pixels
Height                         : 360 pixels
Display aspect ratio           : 16:9
Frame rate                     : 29.970 fps
Bit depth                      : 8 bits
Scan type                      : Progressive
Compression mode               : Lossy
Bits/(Pixel*Frame)             : 0.219
Stream size                    : 211 MiB (92%)
Language                       : English (US)

Audio
ID                             : 1
Format                         : WMA
Format version                 : Version 2
Codec ID                       : 161
Codec ID/Info                  : Windows Media Audio
Description of the codec       : Windows Media Audio V9 Standard - 128 kbps, 44 kHz, 16 bit, Stereo (CBR)
Duration                       : 19mn 41s
Bit rate mode                  : Constant
Bit rate                       : 128 Kbps
Channel(s)                     : 2 channels
Sampling rate                  : 44.1 KHz
Bit depth                      : 16 bits
Stream size                    : 18.0 MiB (8%)
Language                       : English (US)

Seeding 24x7... Extreme Seeding...


Enjoy!
